. 
 
http://www.torrenting.com          :     Once & For all ;)


               www . Torrenting . Com 

(((((((((((((= Enjoy No RAR releases =))))))))))))))))))))


...................................NFO:....................................

.[img]http://img846.imageshack.us/img846/8981/4e9fd5c1990a8.jpg[/img]


[color=blue][size=5][b]Monster.in.Paris.2011.BDRip.XVID.AC3.HQ.Hive-CM8[/b][/size][/color]


[b] Thx Hive

CM8 Doing It Right The First Time :D


Source: Bluray

Video: 720x384 @bitrate 2000 2pass
Audio: English DTS to AC3 5.1 @448
Sample: yes included[/b]


[url]http://www.imdb.com/title/tt0961097/[/url]


General
Complete name                  : Monster.in.Paris.2011.BDRip.XVID.AC3.HQ.Hive-CM8.avi
Format                         : AVI
Format/Info                    : Audio Video Interleave
File size                      : 1.56 GiB
Duration                       : 1h 31mn
Overall bit rate               : 2 456 Kbps
Writing application            : Nandub v1.0rc2
Writing library                : Nandub build 1853/release

Video
ID                             : 0
Format                         : MPEG-4 Visual
Format profile                 : Advanced Simple@L5
Format settings, BVOP          : 2
Format settings, QPel          : Yes
Format settings, GMC           : No warppoints
Format settings, Matrix        : Default (H.263)
Muxing mode                    : Packed bitstream
Codec ID                       : XVID
Codec ID/Hint                  : XviD
Duration                       : 1h 31mn
Bit rate                       : 1 998 Kbps
Width                          : 720 pixels
Height                         : 384 pixels
Display aspect ratio           : 1.850
Frame rate                     : 23.976 fps
Color space                    : YUV
Chroma subsampling             : 4:2:0
Bit depth                      : 8 bits
Scan type                      : Progressive
Compression mode               : Lossy
Bits/(Pixel*Frame)             : 0.301
Stream size                    : 1.27 GiB (81%)
Writing library                : XviD 1.2.1 (UTC 2008-12-04)

Audio
ID                             : 1
Format                         : AC-3
Format/Info                    : Audio Coding 3
Mode extension                 : CM (complete main)
Codec ID                       : 2000
Duration                       : 1h 31mn
Bit rate mode                  : Constant
Bit rate                       : 448 Kbps
Channel(s)                     : 6 channels
Channel positions              : Front: L C R, Side: L R, LFE
Sampling rate                  : 48.0 KHz
Bit depth                      : 16 bits
Compression mode               : Lossy
Delay relative to video        : 70ms
Stream size                    : 292 MiB (18%)
Alignment                      : Split accross interleaves
Interleave, duration           : 42 ms (1.00 video frame)
Interleave, preload duration   : 500 ms


Paris,1910. Emile, a shy movie projectionist, and Raoul, a colorful inventor, find themselves 
embarked on the hunt for a monster terrorizing citizens. They join forces with Lucille, 
the big-hearted star of the Bird of Paradise cabaret, an eccentric scientist and his irascible 
monkey to save the monster, who turns out to be an oversized but harmless flea, from the city's 
ruthlessly ambitious police chief.


Bob Balaban ... Pt 
Adam Goldberg ... Raoul 
Matthew Gczy ... Albert
Jay Harrington ... Emile 
Danny Huston ... Prfet Maynott 
Sean Lennon ... Francoeur 


[img]http://img38.imageshack.us/img38/8780/49102303.png[/img]
[img]http://img689.imageshack.us/img689/5481/momoo.png[/img]
[img]http://img85.imageshack.us/img85/6028/momomo.png[/img]
[img]http://img829.imageshack.us/img829/4277/momomomo.png[/img]
[img]http://img59.imageshack.us/img59/8463/momomomomo.png[/img]
[img]http://img811.imageshack.us/img811/1020/momomomomomo.png[/img]
[img]http://img197.imageshack.us/img197/2585/momomomomomomo.png[/img]
[img]http://img198.imageshack.us/img198/3843/momomomomomomomo.png[/img]




Greetz

ViSiON,SPK,SceneLovers,PRESTiGE,SANTi,3LT0N,YanKeeS,COPYxRIGHT,THC,T0XiC
D2U,LKRG,Feel-Free,FLAWL3SS,WBZ,BHRG,26K,NOVA,SeToNeUp,TED,MAGNET,jtr
Unevano,Rapeseed,SAFC,goldadvance,KaN1vE,Pinnz,Wayne
Mr Hive,and most P2P groups
Great Work Guys :D

LOOKING FOR ANYTHING YOU WANT TO LOOK AND SOUND BETTER

CM8@hushmail.com